# xmcd
#
# Track frame offsets:
#	150
#	13580
#	29995
#	44085
#	58127
#	74475
#	85125
#	102775
#	115510
#	132735
#	148780
#	161435
#	173285
#	184285
#	188762
#	201605
#	218010
#	232842
#	246302
#	260365
#
# Disc length: 3695 seconds
#
# Revision: 1
# Processed by: cddbd v1.5.1PL0 Copyright (c) Steve Scherf et al.
# Submitted via: CDex 1.50Beta5
#
DISCID=2a0e6d14
DTITLE=芹洋子 - わが心の愛唱歌〜抒情歌名曲集 <愛> Disc 4
DYEAR=2002
DGENRE=Pop
TTITLE0=赤とんぼ
TTITLE1=荒城の月
TTITLE2=叱られて
TTITLE3=城ヶ島の雨
TTITLE4=惜別の歌
TTITLE5=花嫁人形
TTITLE6=カチューシャの唄
TTITLE7=出船
TTITLE8=花かげ
TTITLE9=波浮の港
TTITLE10=もずが枯木で
TTITLE11=椰子の実
TTITLE12=あの町この町
TTITLE13=いつかある日
TTITLE14=しゃぼん玉
TTITLE15=サルビアの花
TTITLE16=あの素晴らしい愛をもう一度
TTITLE17=悲しくてやりきれない
TTITLE18=ふれあい
TTITLE19=なごり雪
EXTD=
EXTT0=
EXTT1=
EXTT2=
EXTT3=
EXTT4=
EXTT5=
EXTT6=
EXTT7=
EXTT8=
EXTT9=
EXTT10=
EXTT11=
EXTT12=
EXTT13=
EXTT14=
EXTT15=
EXTT16=
EXTT17=
EXTT18=
EXTT19=
PLAYORDER=
